<svg xmlns="http://www.w3.org/2000/svg" viewBox="0 0 16 16" id="Square-X-Twitter--Streamline-Font-Awesome" height="16" width="16" style="background-color: #ffffff">
  <desc>
    Square X Twitter Streamline Icon: https://streamlinehq.com
  </desc>
<!--! Font Awesome Free 6.5.2 by @fontawesome - https://fontawesome.com License - https://fontawesome.com/license/free (Icons: CC BY 4.0, Fonts: SIL OFL 1.1, Code: MIT License) Copyright 2024 Fonticons, Inc.-->
  <path d="M2.4 0.16C1.1645 0.16 0.16 1.1645 0.16 2.4v11.200000000000001c0 1.2355 1.0045 2.2399999999999998 2.2399999999999998 2.2399999999999998h11.200000000000001c1.2355 0 2.2399999999999998 -1.0045 2.2399999999999998 -2.2399999999999998V2.4c0 -1.2355 -1.0045 -2.2399999999999998 -2.2399999999999998 -2.2399999999999998H2.4ZM12.798499999999999 3.0999999999999996 9.1655 7.2509999999999994 13.438999999999998 12.899999999999999h-3.346L7.475 9.4735 4.475499999999999 12.899999999999999h-1.6624999999999999l3.885 -4.4415L2.5995 3.0999999999999996h3.43l2.3695 3.1324999999999994 2.7369999999999997 -3.1324999999999994h1.6624999999999999Zm-1.3229999999999997 8.806L5.529 4.0415h-0.9905l6.013 7.8645h0.9205Z" fill="#000000" stroke-width="0.0357"></path>
</svg>