<svg xmlns="http://www.w3.org/2000/svg" xmlns:xlink="http://www.w3.org/1999/xlink" version="1.1" id="Layer_1" viewBox="0 0 512 512" enable-background="new 0 0 512 512" xml:space="preserve" preserveAspectRatio="xMidYMid meet" style="width: 320px; height: 320px; transform-origin: 50% 50%; transform: scaleX(1) scaleY(1) rotate(0deg);"><g style="fill:#000000"><path fill="#000000" d="M486,392.599C486,443.97,443.97,486,392.599,486H119.401C68.03,486,26,443.97,26,392.599V119.401   C26,68.031,68.03,26,119.401,26h273.198C443.97,26,486,68.031,486,119.401V392.599z"/><path fill="#FFFFFF" d="M290.425,233.064l110.65-137.91h-32.05l-94.62,117.94l-94.63-117.94H74.125l147.45,183.78l-110.66,137.92   h32.05l94.63-117.95l94.64,117.95h105.65L290.425,233.064z M126.225,120.153h41.55l218,271.7h-41.55L126.225,120.153z"/></g></svg>